# xmcd
#
# Track frame offsets:
#	150
#	12587
#	27914
#	43195
#	64785
#	79309
#	88209
#	101762
#	115686
#	127150
#	144633
#
# Disc length: 2066 seconds
# Revision: 0
# Processed by: cddbd v1.5.2PL0 Copyright (c) Steve Scherf et al.
# Submitted via: dBpowerAMP V12.0
#
DISCID=9e08100b
DTITLE=Al Anderson - Al Anderson [Vanguard] (sa)
DYEAR=1972
DGENRE=Country Rock
TTITLE0=Be My Woman Tonight
TTITLE1=We'll Make Love
TTITLE2=Ain't No Woman Finer Lookin'
TTITLE3=You're Just Laughin' Inside
TTITLE4=I Don't Believe I'll Stay Here Anymore
TTITLE5=Honky Tonkin'
TTITLE6=Goin' On Back To Indiana
TTITLE7=Don't Hold The Line
TTITLE8=I Just Want To Have You Back Again
TTITLE9=I Haven't Got The Strength To Carry On
TTITLE10=C'mon If You're Comin'
EXTD=
EXTT0=
EXTT1=
EXTT2=
EXTT3=
EXTT4=
EXTT5=
EXTT6=
EXTT7=
EXTT8=
EXTT9=
EXTT10=
PLAYORDER=
